<?xml version="1.0" standalone="no"?>
<!DOCTYPE svg PUBLIC "-//W3C//DTD SVG 20010904//EN"
 "http://www.w3.org/TR/2001/REC-SVG-20010904/DTD/svg10.dtd">
<svg version="1.0" xmlns="http://www.w3.org/2000/svg"
 width="512.000000pt" height="512.000000pt" viewBox="0 0 512.000000 512.000000"
 preserveAspectRatio="xMidYMid meet">
<metadata>
Created by potrace 1.11, written by Peter Selinger 2001-2013
</metadata>
<g transform="translate(0.000000,512.000000) scale(0.100000,-0.100000)"
fill="#000000" stroke="none">
<path d="M2367 5099 c-56 -43 -110 -185 -142 -374 -12 -74 -15 -94 -21 -184
-12 -159 -8 -352 10 -478 11 -72 47 -206 65 -241 l20 -37 1 40 c1 22 3 49 5
60 1 11 6 58 9 105 12 171 86 372 181 493 25 32 74 78 108 103 34 25 74 55 89
66 l27 20 -61 31 c-122 60 -191 159 -213 305 l-7 44 33 -3 c35 -3 81 -32 134
-82 42 -40 90 -74 80 -56 -15 26 -79 104 -105 127 -81 75 -164 99 -213 61z"/>
<path d="M3270 4581 c-25 -5 -61 -11 -81 -15 -63 -10 -207 -63 -287 -106 -175
-94 -356 -268 -456 -437 -14 -24 9 -12 54 27 75 67 271 196 376 248 98 48 256
104 324 116 230 39 407 41 518 5 17 -6 32 -14 32 -18 0 -4 -64 -7 -142 -7
-212 0 -317 -17 -500 -84 -163 -60 -399 -201 -495 -296 l-58 -57 30 -7 c33 -7
190 -5 270 4 81 9 148 17 175 21 14 2 45 7 70 10 25 3 52 8 60 10 8 2 35 7 60
10 126 17 427 101 630 177 138 51 360 156 360 170 0 35 -335 171 -526 214 -80
17 -348 27 -414 15z"/>
<path d="M917 4429 c-27 -4 -68 -10 -91 -13 -41 -6 -123 -26 -198 -48 -36 -11
-37 -12 -23 -37 19 -38 117 -132 210 -201 286 -214 774 -315 1165 -240 91 17
88 23 -36 87 -209 110 -547 227 -784 272 -111 22 -143 28 -200 40 l-35 8 27 7
c38 11 249 -5 328 -24 19 -5 54 -12 77 -15 142 -20 380 -97 573 -185 207 -94
207 -94 142 -25 -161 172 -449 321 -696 361 -21 3 -48 8 -60 11 -37 8 -349 11
-399 2z"/>
<path d="M3217 3864 c-1 -1 -29 -4 -62 -8 -88 -9 -110 -12 -215 -36 -52 -12
-106 -23 -120 -26 -14 -3 -50 -11 -80 -19 -52 -13 -187 -38 -275 -50 -50 -7
-150 -7 -201 0 -64 9 -178 27 -199 32 -11 2 -31 6 -45 9 -14 3 -57 11 -97 19
-94 19 -90 20 -103 -19 -79 -241 13 -494 237 -642 133 -88 305 -146 643 -214
140 -29 325 -70 410 -92 85 -22 160 -40 167 -40 37 -3 380 -288 556 -461 278
-275 444 -516 527 -767 40 -123 38 -146 -4 -42 -32 80 -88 179 -130 232 -134
167 -349 302 -631 396 -114 38 -367 102 -466 119 -45 7 -180 32 -308 56 -57
11 -122 22 -145 24 -22 3 -50 7 -61 9 -11 2 -58 7 -105 10 -47 4 -98 9 -115
11 -16 2 -65 7 -107 10 -43 4 -92 8 -110 10 -37 5 -126 57 -218 129 -156 120
-214 192 -375 461 -217 363 -329 498 -485 592 -33 20 -91 38 -117 36 -7 0 -26
-1 -42 -2 -62 -2 -250 -229 -339 -407 -87 -173 -167 -411 -188 -559 -3 -16 -6
-39 -9 -50 -10 -50 -19 -192 -19 -316 l0 -135 59 -97 c33 -53 75 -113 95 -134
92 -95 315 -200 495 -232 116 -20 142 -23 330 -26 207 -4 337 4 475 30 14 3
41 7 60 10 104 17 403 80 521 110 175 44 350 82 414 90 128 14 402 14 500 -1
263 -40 502 -161 682 -345 159 -164 232 -300 278 -522 35 -169 35 -168 44
-163 10 6 107 203 159 321 86 198 172 459 198 604 1 7 7 34 13 60 33 140 35
412 6 606 -46 308 -165 606 -339 845 -38 53 -204 223 -277 284 -147 123 -401
236 -613 272 -75 13 -260 26 -269 18z m1180 -2466 c-3 -8 -6 -5 -6 6 -1 11 2
17 5 13 3 -3 4 -12 1 -19z"/>
<path d="M720 1239 c-74 -7 -100 -16 -100 -33 0 -19 82 -172 162 -303 77 -128
226 -338 298 -424 50 -59 186 -198 238 -242 56 -48 168 -116 239 -146 145 -62
241 -76 488 -71 272 6 583 4 650 -4 129 -14 518 -14 610 0 199 30 335 89 490
213 105 84 189 173 202 214 25 82 1 194 -70 327 -153 287 -294 399 -556 445
-19 3 -38 8 -42 11 -13 7 -209 7 -269 0 -147 -19 -323 -58 -530 -118 -58 -16
-112 -32 -120 -33 -8 -2 -58 -17 -110 -34 -103 -33 -133 -37 -177 -20 -59 22
-288 78 -514 124 -9 2 -32 6 -50 9 -19 3 -72 12 -119 20 -47 8 -110 18 -140
21 -30 4 -57 8 -60 10 -3 2 -39 6 -80 10 -41 3 -88 8 -105 11 -16 2 -79 6
-140 9 -60 4 -114 7 -120 9 -5 1 -39 -1 -75 -5z"/>
</g>
</svg>
